# xmcd
#
# Track frame offsets:
#	150
#	14770
#	28200
#	40785
#	53390
#	68010
#	78710
#	91135
#	106830
#	120595
#	134720
#	146750
#	158555
#	168825
#	180040
#	190875
#	201215
#	211250
#	222585
#	239885
#	251255
#	264920
#
# Disc length: 3654 seconds
#
# Revision: 1
# Processed by: cddbd v1.5.1PL0 Copyright (c) Steve Scherf et al.
# Submitted via: audiograbber 1.82.02
#
DISCID=330e4416
DTITLE=Connie Francis - Treasure Of Love Songs
DYEAR=1900
DGENRE=
TTITLE0=The Last Waltz
TTITLE1=Somewhere My Love
TTITLE2=Tennessee Waltz
TTITLE3=I CXan't Stop Loving You
TTITLE4=Return To Me
TTITLE5=Anniversary Waltz
TTITLE6=My Heart Crys For You
TTITLE7=Kiss Me Goodbye
TTITLE8=Strangers In The Night
TTITLE9=True Love
TTITLE10=Everbodys Somebodys Fool
TTITLE11=Where The Boys Are
TTITLE12=Who's Sorry Now
TTITLE13=My Happiness
TTITLE14=V-A-C-A-T-I-O-N
TTITLE15=Lipstick On Your Collar
TTITLE16=Stupid Cupid
TTITLE17=My Heart Has A Mind Of Its Own
TTITLE18=Mama
TTITLE19=Among My Souveniers
TTITLE20=Don't Break The Heart That Loves You
TTITLE21=Many Tears Ago
EXTD=
EXTT0=
EXTT1=
EXTT2=
EXTT3=
EXTT4=
EXTT5=
EXTT6=
EXTT7=
EXTT8=
EXTT9=
EXTT10=
EXTT11=
EXTT12=
EXTT13=
EXTT14=
EXTT15=
EXTT16=
EXTT17=
EXTT18=
EXTT19=
EXTT20=
EXTT21=
PLAYORDER=
